<svg data-v-0dd9719b="" version="1.0" xmlns="http://www.w3.org/2000/svg" xmlns:xlink="http://www.w3.org/1999/xlink" width="100%" height="100%" viewBox="0 0 340.000000 250.000000" preserveAspectRatio="xMidYMid meet" color-interpolation-filters="sRGB" style="margin: auto;"> <rect data-v-0dd9719b="" x="0" y="0" width="100%" height="100%" fill="#ffffff" fill-opacity="1" class="background"></rect> <rect data-v-0dd9719b="" x="0" y="0" width="100%" height="100%" fill="url(#watermark)" fill-opacity="1" class="watermarklayer"></rect> <g data-v-0dd9719b="" fill="#203d88" class="icon-text-wrapper icon-svg-group iconsvg" transform="translate(47.31500244140625,96.0787467956543)"><g class="iconsvg-imagesvg" transform="translate(0,13.42074203491211)"><g><rect fill="#203d88" fill-opacity="0" stroke-width="2" x="0" y="0" width="60" height="31.001023033760116" class="image-rect"></rect> <svg filter="url(#colors220129996)" x="0" y="0" width="60" height="31.001023033760116" filtersec="colorsf803167648" class="image-svg-svg primary" style="overflow: visible;"><svg xmlns="http://www.w3.org/2000/svg" viewBox="0 0 108.9 58.2"><path d="M106.9 29.1c0 3.5-2.8 6.3-6.3 6.3-5 0-10.3-6.3-10.3-6.3m16.6 0c0-3.5-2.8-6.3-6.3-6.3-5 0-10.3 6.3-10.3 6.3M63.2 2L36.1 29.1l27.1 27.1 27.1-27.1L63.2 2zM18.6 29.1s-5.2-6.3-10.3-6.3c-3.5 0-6.3 2.8-6.3 6.3m0 0c0 3.5 2.8 6.3 6.3 6.3 5 0 10.3-6.3 10.3-6.3m27.1 27.1l27.1-27.1L45.7 2 18.6 29.1l27.1 27.1z" fill="none" stroke="#333" stroke-width="4" stroke-linejoin="round" stroke-miterlimit="10"></path></svg></svg> <defs><filter id="colors220129996"><feColorMatrix type="matrix" values="0 0 0 0 0.125  0 0 0 0 0.23828125  0 0 0 0 0.53125  0 0 0 1 0" class="icon-fecolormatrix"></feColorMatrix></filter> <filter id="colorsf803167648"><feColorMatrix type="matrix" values="0 0 0 0 0.99609375  0 0 0 0 0.99609375  0 0 0 0 0.99609375  0 0 0 1 0" class="icon-fecolormatrix"></feColorMatrix></filter> <filter id="colorsb994249621"><feColorMatrix type="matrix" values="0 0 0 0 0  0 0 0 0 0  0 0 0 0 0  0 0 0 1 0" class="icon-fecolormatrix"></feColorMatrix></filter></defs></g></g> <g transform="translate(67,0)"><g data-gra="path-name" fill-rule="" class="tp-name iconsvg-namesvg" transform="translate(0,0)"><g transform="scale(1)"><g><path d="M33.05-8L33.05-8 25.22-8 25.22 1.45Q25.18 1.58 24.63 1.87 24.08 2.15 22.85 2.42 21.62 2.68 20.13 2.68L20.13 2.68 18.94 2.68 18.94-8 11.65-8 11.29-9.27 18.94-9.27 18.94-14.59 12-14.59 11.65-15.82 23.33-15.82Q24.3-19.47 24.87-23.86L24.87-23.86 31.95-21.93Q31.64-21.01 30.23-21.05L30.23-21.05Q27.33-17.97 24.79-15.82L24.79-15.82 27.33-15.82 29.71-18.68Q32.39-16.74 34.1-15.29L34.1-15.29Q33.93-14.59 32.92-14.59L32.92-14.59 25.22-14.59 25.22-9.27 26.76-9.27 29.44-12.57Q32.43-10.33 34.28-8.75L34.28-8.75Q34.06-8 33.05-8ZM13.58-23.51L13.58-23.51 13.93-23.73Q19.51-22.85 20.61-20.08L20.61-20.08Q21.31-18.33 19.95-17.01L19.95-17.01Q18.54-15.64 16.61-16.44L16.61-16.44Q16-16.7 15.47-17.18L15.47-17.18Q15.56-20.57 13.58-23.51ZM42.58-30.72L42.58-30.72 25.62-30.72 25.62-25.49 34.01-25.49 36.91-28.65 42.8-24.13Q42.14-23.38 41-23.16L41-23.16 41-2.59Q41-0.92 40.74 0.13 40.47 1.19 39.66 2.13 38.85 3.08 37.22 3.58 35.6 4.09 33 4.31L33 4.31Q32.78 1.19 31.86-0.04L31.86-0.04Q30.63-1.63 27.82-2.07L27.82-2.07 27.82-2.64Q32.34-2.33 33.57-2.33L33.57-2.33Q34.45-2.33 34.45-3.25L34.45-3.25 34.45-24.21 10.63-24.21 10.63 1.98Q10.63 2.59 8.83 3.41 7.03 4.22 5.14 4.22L5.14 4.22 4.09 4.22 4.09-28.17 11.07-25.49 18.98-25.49 18.98-30.72 1.54-30.72 1.19-31.99 18.98-31.99 18.98-38.32 27.25-37.71Q27.11-36.65 25.62-36.39L25.62-36.39 25.62-31.99 33.88-31.99 37.44-36.43Q41.44-33.49 43.9-31.46L43.9-31.46Q43.68-30.72 42.58-30.72ZM56.43-11.69L56.43-11.69 63.33-7.6Q62.93-6.86 61.61-7.08L61.61-7.08Q58.89-4.48 54.84-2.15 50.8 0.18 46.36 1.49L46.36 1.49 46.05 1.01Q49.22-1.41 52.1-4.99 54.98-8.57 56.43-11.69ZM60.29-24.52L60.29-16.39 74.75-16.39 74.75-24.52 60.29-24.52ZM74.75-12.7L74.75-15.12 70.88-15.12 70.88-3.21Q70.88 0.35 69.32 2.13 67.76 3.91 62.93 4.26L62.93 4.26Q62.8 1.01 61.92-0.26L61.92-0.26Q60.82-1.8 58.01-2.33L58.01-2.33 58.01-2.9Q62.4-2.59 63.37-2.59L63.37-2.59Q64.2-2.59 64.2-3.34L64.2-3.34 64.2-15.12 60.29-15.12 60.29-13.89Q60.29-13.58 59.46-13.12 58.62-12.66 57.24-12.28 55.85-11.91 54.62-11.91L54.62-11.91 53.7-11.91 53.7-28.39 60.64-25.8 74.31-25.8 77.21-28.96 83.28-24.43Q82.75-23.73 81.52-23.47L81.52-23.47 81.52-14.37Q81.47-14.19 80.57-13.8 79.67-13.4 78.31-13.05 76.95-12.7 75.89-12.7L75.89-12.7 74.75-12.7ZM73.13-9.98L73.13-9.98 73.43-10.24Q82.27-9.54 85.47-5.45L85.47-5.45Q87.36-3.03 86.4-0.79L86.4-0.79Q85.56 1.1 83.45 1.14L83.45 1.14Q82.4 1.14 81.21 0.57L81.21 0.57Q78.84-4.61 73.13-9.98ZM70.8-31.55L78.75-31.55 82.22-36.04Q86.18-33.05 88.51-31.03L88.51-31.03Q88.29-30.28 87.23-30.28L87.23-30.28 47.24-30.28 46.89-31.55 64.03-31.55 64.03-38.28 72.42-37.71Q72.33-36.65 70.8-36.39L70.8-36.39 70.8-31.55ZM128.06-32.21L128.06-32.21 96.37-32.21 96.02-33.49 119.09-33.49 122.7-38.14Q126.91-35.07 129.38-32.96L129.38-32.96Q129.16-32.21 128.06-32.21ZM91.58-21.45L123.05-21.45 126.78-26.28Q131.04-23.07 133.55-20.92L133.55-20.92Q133.37-20.21 132.23-20.21L132.23-20.21 114.92-20.21Q109.51-10.94 104.15-4.53L104.15-4.53Q110.52-4.83 122.04-5.71L122.04-5.71Q119.66-10.5 116.5-14.46L116.5-14.46 116.89-14.72Q126.91-11.43 130.56-5.41L130.56-5.41Q132.89-1.58 131.79 1.54L131.79 1.54Q131 3.87 128.89 4.13L128.89 4.13Q127.13 4.31 125.2 2.86L125.2 2.86Q124.54-0.31 122.78-4.09L122.78-4.09Q114.08-1.14 97.34 2.55L97.34 2.55Q96.77 3.38 95.89 3.6L95.89 3.6 92.59-4.09Q96.94-4.17 101.56-4.39L101.56-4.39Q104.33-12.66 105.69-20.21L105.69-20.21 91.93-20.21 91.58-21.45ZM144.71-38.58L144.71-38.58 151.74-34.58Q151.39-33.79 149.99-33.97L149.99-33.97Q148.01-31.38 145.99-29.36L145.99-29.36Q148.1-26.37 149-22.72 149.9-19.07 150.07-14.37L150.07-14.37Q150.56-2.9 147.22 1.8L147.22 1.8Q145.46 4.31 140.32 4.31L140.32 4.31Q140.32 0.79 139.39-0.4L139.39-0.4Q138.25-1.76 136.27-2.24L136.27-2.24 136.27-2.77Q139.39-2.46 141.02-2.46L141.02-2.46Q141.9-2.46 142.43-3.12L142.43-3.12Q143.88-5.27 143.96-13.8L143.96-13.8Q140.67-10.5 135.83-7.91L135.83-7.91 135.53-8.22Q141.24-15.29 142.95-25.05L142.95-25.05Q142.91-25.22 142.8-25.62 142.69-26.02 142.65-26.24L142.65-26.24Q139.57-23.64 136.05-21.75L136.05-21.75 135.66-22.19Q138.52-25.4 141.11-30.19L141.11-30.19Q139.35-33.62 136.45-36.52L136.45-36.52 136.8-36.91Q140.19-35.24 142.56-33.18L142.56-33.18Q144.14-36.65 144.71-38.58ZM167.12-10.2L167.12-0.66 170.42-0.66 170.42-10.2 167.12-10.2ZM161.24-10.2L158.12-10.2 158.12-0.66 161.24-0.66 161.24-10.2ZM161.24-11.47L161.24-19.95 158.12-19.95 158.12-11.47 161.24-11.47ZM170.42-11.47L170.42-19.95 167.12-19.95 167.12-11.47 170.42-11.47ZM158.47-21.18L169.98-21.18 172.84-24.35 178.59-19.91Q177.93-19.16 176.79-18.9L176.79-18.9 176.79 2.15Q176.75 2.37 175.89 2.75 175.03 3.12 173.76 3.45 172.49 3.78 171.47 3.78L171.47 3.78 170.42 3.78 170.42 0.57 158.12 0.57 158.12 2.07Q158.12 2.64 156.42 3.38 154.73 4.13 152.93 4.13L152.93 4.13 151.96 4.13 151.96-23.77 158.47-21.18ZM172.22-31.2L172.57-31.2 175.12-35.38Q178.02-32.48 179.56-30.63L179.56-30.63Q179.43-29.93 178.37-29.93L178.37-29.93 172.22-29.93 172.22-24.79Q172.22-24.57 171.45-24.28 170.68-23.99 169.43-23.77 168.18-23.55 167.04-23.55L167.04-23.55 166.03-23.55 166.03-29.93 161.72-29.93 161.72-24.57Q161.72-24.39 160.97-24.1 160.22-23.82 158.99-23.58 157.76-23.33 156.62-23.33L156.62-23.33 155.57-23.33 155.57-29.93 149.9-29.93 149.55-31.2 155.57-31.2 155.57-38.1 163.39-37.44Q163.21-36.43 161.72-36.17L161.72-36.17 161.72-31.2 166.03-31.2 166.03-38.1 173.89-37.44Q173.72-36.43 172.22-36.17L172.22-36.17 172.22-31.2Z" transform="translate(-1.190000057220459, 38.58000183105469)"></path></g> <!----> <!----> <!----> <!----> <!----> <!----> <!----></g></g> <g data-gra="path-slogan" fill-rule="" class="tp-slogan iconsvg-slogansvg" fill="#f7b634" transform="translate(35.724998474121094,48.8900032043457)"><!----> <!----> <g transform="scale(1, 1)"><g transform="scale(1)"><path d="M2.30-8.58L6.61-1.64L6.61-8.58L7.73-8.58L7.73 0L6.42 0L2.06-6.94L2.02-6.94L2.02 0L0.89 0L0.89-8.58L2.30-8.58ZM15.19 0L14.34-2.48L10.88-2.48L9.98 0L8.81 0L12.05-8.58L13.36-8.58L16.45 0L15.19 0ZM12.61-7.31L11.25-3.52L13.92-3.52L12.66-7.31L12.61-7.31ZM18.89-8.58L23.20-1.64L23.20-8.58L24.33-8.58L24.33 0L23.02 0L18.66-6.94L18.61-6.94L18.61 0L17.48 0L17.48-8.58L18.89-8.58ZM25.41-1.92L25.41-2.77L26.48-2.77L26.48-2.16Q26.48-0.75 27.80-0.75L27.80-0.75Q29.16-0.75 29.16-2.25L29.16-2.25L29.16-8.58L30.33-8.58L30.33-2.30Q30.28 0.09 27.84 0.14L27.84 0.14Q25.55 0.09 25.41-1.92L25.41-1.92ZM32.30-8.58L33.47-8.58L33.47 0L32.30 0L32.30-8.58ZM36.84-8.58L41.16-1.64L41.16-8.58L42.28-8.58L42.28 0L40.97 0L36.61-6.94L36.56-6.94L36.56 0L35.44 0L35.44-8.58L36.84-8.58ZM50.48-3.61L47.86-3.61L47.86-4.59L51.61-4.59L51.61 0L50.86 0L50.58-1.08Q49.59 0.09 47.77 0.14L47.77 0.14Q46.03 0.14 45.09-0.75L45.09-0.75Q43.69-2.06 43.73-4.36L43.73-4.36Q44.06-8.63 47.81-8.81L47.81-8.81Q51-8.63 51.47-6L51.47-6L50.34-6Q49.88-7.78 47.77-7.83L47.77-7.83Q45.09-7.64 44.95-4.31L44.95-4.31Q44.95-0.75 47.81-0.75L47.81-0.75Q48.84-0.75 49.59-1.31L49.59-1.31Q50.53-2.06 50.48-3.61L50.48-3.61ZM63.66-8.58L60.42-3.47L60.42 0L59.25 0L59.25-3.47L56.02-8.58L57.38-8.58L59.81-4.45L62.30-8.58L63.66-8.58ZM70.36-3.19L70.36-8.58L71.53-8.58L71.53-3.05Q71.39 0.05 68.02 0.14L68.02 0.14Q64.88 0.05 64.73-2.86L64.73-2.86L64.73-8.58L65.91-8.58L65.91-3.19Q65.95-0.84 68.06-0.80L68.06-0.80Q70.36-0.84 70.36-3.19L70.36-3.19ZM74.72-8.58L79.03-1.64L79.03-8.58L80.16-8.58L80.16 0L78.84 0L74.48-6.94L74.44-6.94L74.44 0L73.31 0L73.31-8.58L74.72-8.58ZM90.19-8.58L90.19 0L89.06 0L89.06-5.06Q89.06-5.77 89.06-7.22L89.06-7.22L86.63 0L85.45 0L83.06-7.22L83.02-7.22Q83.02-6.70 83.06-5.67L83.06-5.67Q83.06-5.16 83.06-5.06L83.06-5.06L83.06 0L81.89 0L81.89-8.58L83.58-8.58L86.06-1.31L88.50-8.58L90.19-8.58ZM97.55 0L96.70-2.48L93.23-2.48L92.34 0L91.17 0L94.41-8.58L95.72-8.58L98.81 0L97.55 0ZM94.97-7.31L93.61-3.52L96.28-3.52L95.02-7.31L94.97-7.31ZM106.64-4.27L106.64-4.27Q106.45-7.64 103.64-7.83L103.64-7.83Q100.78-7.69 100.64-4.27L100.64-4.27Q100.78-0.94 103.64-0.80L103.64-0.80Q106.45-0.98 106.64-4.27ZM107.81-4.27L107.81-4.27Q107.53 0 103.64 0.14L103.64 0.14Q99.70 0 99.42-4.27L99.42-4.27Q99.66-8.72 103.64-8.81L103.64-8.81Q107.53-8.67 107.81-4.27Z" transform="translate(-0.890625, 8.8125)"></path></g></g></g></g></g><defs v-gra="od"></defs></svg>